<?xml version="1.0" encoding="UTF-8" standalone="yes"?>
<svg version="1.2" width="512" height="512" baseProfile="tiny-ps" xmlns="http://www.w3.org/2000/svg">
  <title>bimi-svg-tiny-12-ps</title>
  <path d="M0 0 C3.89688917 3.72745921 6.05419135 7.44147567 7.875 12.5625 C8.69994289 14.86278889 8.69994289 14.86278889 10.72265625 16.01953125 C12.82095091 17.00438055 12.82095091 17.00438055 14.55859375 15.9921875 C15.13738281 15.54101562 15.71617187 15.08984375 16.3125 14.625 C26.4519448 7.8093511 37.98969122 6.6357523 49.875 7.75 C52.07670753 8.32294434 54.26679917 8.94394261 56.4375 9.625 C60.24259274 10.85806054 60.24259274 10.85806054 63.8515625 9.71875 C65.58594906 8.14125938 65.58594906 8.14125938 67.17578125 6.390625 C71.20151848 2.5037063 77.01258469 1.59909289 82.4375 1.375 C89.55332164 1.67200821 95.12607208 4.20158944 100.33984375 9.0234375 C105.0964869 14.37314812 106.66107528 20.84979632 107.875 27.75 C108.48085938 27.89695313 109.08671875 28.04390625 109.7109375 28.1953125 C120.73031078 31.14511396 129.16250325 36.37500454 135.875 45.75 C135.875 46.41 135.875 47.07 135.875 47.75 C136.431875 47.70359375 136.98875 47.6571875 137.5625 47.609375 C144.66436595 47.27347593 149.51228047 48.70400956 154.82421875 53.515625 C160.91534544 60.00261108 163.49932846 66.30583321 163.23828125 75.22265625 C162.6285305 79.46468569 160.87385197 83.00032878 158.875 86.75 C158.2064898 88.08240997 157.53927182 89.41547193 156.875 90.75 C157.52726562 90.98074219 158.17953125 91.21148437 158.8515625 91.44921875 C167.62294851 94.72231707 172.68517328 98.21516779 176.875 106.75 C179.14909779 114.08775555 178.67987838 121.84860163 175.203125 128.6796875 C172.02735967 133.63014523 167.74594864 138.1986736 162.1484375 140.3515625 C158.9049381 140.92001085 155.78658168 140.68714082 152.5 140.5625 C146.07947874 140.41729647 142.9455595 141.25525625 137.9453125 145.1484375 C129.34347624 151.80268819 118.31964995 151.98938947 107.875 150.75 C106.77542969 150.36585938 105.67585938 149.98171875 104.54296875 149.5859375 C101.97568104 148.45944528 101.97568104 148.45944528 100.00390625 149.578125 C99.48699219 150.04734375 98.97007812 150.5165625 98.4375 151 C95.83289401 153.14665329 94.81586175 153.76372852 91.375 154.5625 C87.5981832 155.84391999 86.8970004 156.62598798 84.5 159.625 C80.84797443 164.04926006 77.54137503 166.51958714 71.875 167.75 C67.97754068 167.84784417 64.21854552 167.75615938 60.328125 167.5 C56.14650094 167.80274201 54.91173703 168.96423298 51.875 171.75 C50.21634165 172.69816987 48.5281803 173.59689621 46.8125 174.4375 C45.97589844 174.85386719 45.13929688 175.27023437 44.27734375 175.69921875 C39.66397865 177.71709714 35.73590101 177.91176911 30.6875 177.9375 C29.68710693 177.94281738 29.68710693 177.94281738 28.66650391 177.94824219 C24.83122233 177.92034923 21.43297685 177.54961735 17.75 176.5 C13.896608 175.29360055 13.896608 175.29360055 11.125 177.5 C10.3825 178.2425 9.64 178.985 8.875 179.75 C4.80261827 181.89335881 1.44680977 182.14412153 -3.125 181.75 C-8.30430852 180.05332997 -11.59946001 177.91654726 -15.125 173.75 C-15.125 173.09 -15.125 172.43 -15.125 171.75 C-15.8675 172.224375 -16.61 172.69875 -17.375 173.1875 C-22.68430054 176.20414803 -28.12540504 176.3764283 -34.125 175.75 C-39.81299615 174.134092 -43.96059576 171.28976031 -48.24609375 167.3125 C-50.40924542 165.51362127 -52.66648246 164.23960702 -55.125 162.875 C-60.18752988 159.96443236 -63.5948661 156.35553894 -67.125 151.75 C-67.73085937 151.90597656 -68.33671875 152.06195313 -68.9609375 152.22265625 C-77.75474634 154.26552569 -85.32736261 154.32100407 -93.36328125 149.87109375 C-95.77377238 148.33714485 -97.97620433 146.63019621 -100.125 144.75 C-100.82625 145.36875 -101.5275 145.9875 -102.25 146.625 C-108.39339934 151.16577342 -114.70716287 151.4430534 -122.125 150.75 C-125.875 149.5625 -125.875 149.5625 -129.125 147.75 C-130.01832031 147.27433594 -130.01832031 147.27433594 -130.9296875 146.7890625 C-136.45960276 143.44263309 -138.99016331 138.74533304 -141.125 132.75 C-142.15766233 128.14604712 -142.45246977 124.30424245 -141.125 119.75 C-141.846875 119.54375 -142.56875 119.3375 -143.3125 119.125 C-147.10956 117.26865956 -148.6231308 115.15532197 -151.125 111.75 C-152.79575165 106.73774506 -153.19031518 101.44543108 -151.21875 96.45703125 C-148.30059254 91.47184559 -144.68727482 87.72500545 -138.94140625 86.15234375 C-138.34199219 86.01957031 -137.74257812 85.88679688 -137.125 85.75 C-137.06183594 84.82960938 -136.99867188 83.90921875 -136.93359375 82.9609375 C-135.58748996 69.04647513 -130.84783119 58.52170057 -120.5546875 48.73828125 C-114.45898821 43.75 -114.45898821 43.75 -111.125 43.75 C-111.455 43.09 -111.785 42.43 -112.125 41.75 C-113.06966959 32.69046381 -111.26823062 25.75035508 -105.875 18.4375 C-100.08157599 12.77574471 -94.20191856 11.04460781 -86.1640625 10.56640625 C-82.08179989 10.81302109 -78.92568097 12.04799853 -75.28125 13.83984375 C-72.90088533 15.00925174 -72.90088533 15.00925174 -69.125 14.75 C-67.44022656 13.43962066 -65.77691491 12.10156675 -64.125 10.75 C-57.64234853 6.71591004 -51.40442923 5.81112558 -43.92773438 5.06054688 C-38.34608505 4.35893043 -35.86950029 3.2145965 -32.125 -1.25 C-21.80250857 -8.83023129 -9.93231059 -7.15126363 0 0 Z " fill="#FEFEFE" transform="translate(262.125,164.25)"/>
  <path d="M0 0 C6.1182925 0.91100205 10.62892218 4.10627087 15.8125 7.3125 C16.79154297 7.89451172 17.77058594 8.47652344 18.77929688 9.07617188 C19.70419922 9.64529297 20.62910156 10.21441406 21.58203125 10.80078125 C22.42999268 11.31809814 23.2779541 11.83541504 24.15161133 12.3684082 C25.06656372 13.17604614 25.06656372 13.17604614 26 14 C26 18.39922196 25.32668341 19.49168727 23 23.0625 C20.5153434 26.72020382 20.5153434 26.72020382 20 31 C24.09189762 29.63603413 24.61547327 27.65151017 26.6875 23.9375 C27.31011719 22.83277344 27.93273437 21.72804687 28.57421875 20.58984375 C29.27998047 19.30787109 29.27998047 19.30787109 30 18 C34.31085759 18.67915667 36.10640878 19.6777286 39 23 C34.25 24.125 34.25 24.125 32 23 C31.773125 23.556875 31.54625 24.11375 31.3125 24.6875 C30 27 30 27 27.625 29.25 C23.70930192 33.35215989 21.82361679 37.98166765 19.69848633 43.18945312 C18.03815072 47.06024688 16.00150276 50.62226335 13.83203125 54.2265625 C13.43352463 54.89609955 13.03501801 55.5656366 12.62443542 56.25546265 C11.35779581 58.38106218 10.08516489 60.50300384 8.8125 62.625 C7.97814158 64.02451665 7.1441544 65.42425471 6.31054688 66.82421875 C3.1191669 72.17486751 -0.07439173 77.52305891 -3.36181641 82.81542969 C-3.73156082 83.41100677 -4.10130524 84.00658386 -4.48225403 84.62020874 C-5.48390917 86.22856133 -6.49043939 87.83387491 -7.49731445 89.43896484 C-9.11022323 91.98508067 -9.11022323 91.98508067 -10 95 C-9.21625 95.28875 -8.4325 95.5775 -7.625 95.875 C-5 97 -5 97 -3 99 C-5.60482949 99.94721072 -7.30674701 100.30222393 -9.890625 99.17578125 C-11.62582873 98.17063275 -13.31640423 97.0893855 -15 96 C-14.57815409 91.50031028 -12.60763262 88.5300092 -10.15625 84.8671875 C-8.83827223 82.89916091 -8.83827223 82.89916091 -8 80 C-8.99 80 -9.98 80 -11 80 C-12.93339429 82.68622162 -12.93339429 82.68622162 -14.6875 86 C-15.31011719 87.11375 -15.93273437 88.2275 -16.57421875 89.375 C-17.04472656 90.24125 -17.51523438 91.1075 -18 92 C-22.14658612 91.41796531 -24.97416902 90.03836446 -28.51953125 87.83984375 C-29.54111328 87.21142578 -30.56269531 86.58300781 -31.61523438 85.93554688 C-32.67033203 85.27619141 -33.72542969 84.61683594 -34.8125 83.9375 C-36.42415039 82.94266602 -36.42415039 82.94266602 -38.06835938 81.92773438 C-40.71645524 80.2917996 -43.36005942 78.64905095 -46 77 C-42.57100694 69.75876154 -38.6455322 62.92190286 -34.44177246 56.10507202 C-32.56963837 53.06887928 -30.71053337 50.02473312 -28.8515625 46.98046875 C-28.4611377 46.3415419 -28.07071289 45.70261505 -27.66845703 45.04432678 C-24.68586808 40.15232235 -21.75120358 35.23315962 -18.8359375 30.30078125 C-18.40989227 29.5802356 -17.98384705 28.85968994 -17.54489136 28.11730957 C-15.86963107 25.28197733 -14.19554357 22.44598516 -12.52752686 19.60638428 C-4.52168048 5.97766159 -4.52168048 5.97766159 0 0 Z " fill="#D6D6D5" transform="translate(210,183)"/>
  <path d="M0 0 C6.1182925 0.91100205 10.62892218 4.10627087 15.8125 7.3125 C16.79154297 7.89451172 17.77058594 8.47652344 18.77929688 9.07617188 C19.70419922 9.64529297 20.62910156 10.21441406 21.58203125 10.80078125 C22.42999268 11.31809814 23.2779541 11.83541504 24.15161133 12.3684082 C25.06656372 13.17604614 25.06656372 13.17604614 26 14 C26 18.39922196 25.32668341 19.49168727 23 23.0625 C20.5153434 26.72020382 20.5153434 26.72020382 20 31 C24.09189762 29.63603413 24.61547327 27.65151017 26.6875 23.9375 C27.31011719 22.83277344 27.93273437 21.72804687 28.57421875 20.58984375 C29.27998047 19.30787109 29.27998047 19.30787109 30 18 C34.31085759 18.67915667 36.10640878 19.6777286 39 23 C34.25 24.125 34.25 24.125 32 23 C31.773125 23.556875 31.54625 24.11375 31.3125 24.6875 C30 27 30 27 27.625 29.25 C23.70930192 33.35215989 21.82361679 37.98166765 19.69848633 43.18945312 C18.03815072 47.06024688 16.00150276 50.62226335 13.83203125 54.2265625 C13.43352463 54.89609955 13.03501801 55.5656366 12.62443542 56.25546265 C11.35779581 58.38106218 10.08516489 60.50300384 8.8125 62.625 C7.97814158 64.02451665 7.1441544 65.42425471 6.31054688 66.82421875 C3.1191669 72.17486751 -0.07439173 77.52305891 -3.36181641 82.81542969 C-3.73156082 83.41100677 -4.10130524 84.00658386 -4.48225403 84.62020874 C-5.48390917 86.22856133 -6.49043939 87.83387491 -7.49731445 89.43896484 C-9.11022323 91.98508067 -9.11022323 91.98508067 -10 95 C-9.21625 95.28875 -8.4325 95.5775 -7.625 95.875 C-5 97 -5 97 -3 99 C-5.60482949 99.94721072 -7.30674701 100.30222393 -9.890625 99.17578125 C-11.62582873 98.17063275 -13.31640423 97.0893855 -15 96 C-14.57815409 91.50031028 -12.60763262 88.5300092 -10.15625 84.8671875 C-8.83827223 82.89916091 -8.83827223 82.89916091 -8 80 C-8.99 80 -9.98 80 -11 80 C-12.93339429 82.68622162 -12.93339429 82.68622162 -14.6875 86 C-15.31011719 87.11375 -15.93273437 88.2275 -16.57421875 89.375 C-17.04472656 90.24125 -17.51523438 91.1075 -18 92 C-22.14658612 91.41796531 -24.97416902 90.03836446 -28.51953125 87.83984375 C-29.54111328 87.21142578 -30.56269531 86.58300781 -31.61523438 85.93554688 C-32.67033203 85.27619141 -33.72542969 84.61683594 -34.8125 83.9375 C-36.42415039 82.94266602 -36.42415039 82.94266602 -38.06835938 81.92773438 C-40.71645524 80.2917996 -43.36005942 78.64905095 -46 77 C-42.57100694 69.75876154 -38.6455322 62.92190286 -34.44177246 56.10507202 C-32.56963837 53.06887928 -30.71053337 50.02473312 -28.8515625 46.98046875 C-28.4611377 46.3415419 -28.07071289 45.70261505 -27.66845703 45.04432678 C-24.68586808 40.15232235 -21.75120358 35.23315962 -18.8359375 30.30078125 C-18.40989227 29.5802356 -17.98384705 28.85968994 -17.54489136 28.11730957 C-15.86963107 25.28197733 -14.19554357 22.44598516 -12.52752686 19.60638428 C-4.52168048 5.97766159 -4.52168048 5.97766159 0 0 Z M1 4 C-0.35076544 5.97933946 -1.56187936 7.94220346 -2.75390625 10.015625 C-3.31340973 10.96769333 -3.31340973 10.96769333 -3.88421631 11.93899536 C-4.69298633 13.31689445 -5.49841965 14.69675614 -6.30093384 16.07830811 C-8.43121563 19.74542905 -10.58487018 23.39881358 -12.734375 27.0546875 C-13.17239944 27.80138702 -13.61042389 28.54808655 -14.0617218 29.31741333 C-18.40549523 36.71466022 -22.84663551 44.05100739 -27.3125 51.375 C-30.26700058 56.22360636 -30.26700058 56.22360636 -33.21337891 61.07714844 C-34.40634479 63.02880019 -35.61711292 64.96967889 -36.84521484 66.89941406 C-37.40547363 67.79112305 -37.96573242 68.68283203 -38.54296875 69.6015625 C-39.04207764 70.38096191 -39.54118652 71.16036133 -40.05541992 71.96337891 C-41.34007542 74.123158 -41.34007542 74.123158 -40 77 C-38.35031483 78.31569855 -38.35031483 78.31569855 -36.2890625 79.4453125 C-35.53882813 79.88230469 -34.78859375 80.31929688 -34.015625 80.76953125 C-33.22671875 81.21683594 -32.4378125 81.66414063 -31.625 82.125 C-30.84382812 82.58003906 -30.06265625 83.03507812 -29.2578125 83.50390625 C-26.17763944 85.28133488 -23.38411968 86.87196011 -20 88 C-19.52691406 87.18958252 -19.05382812 86.37916504 -18.56640625 85.54418945 C-16.7708964 82.47007884 -14.97401499 79.39677797 -13.17626953 76.32397461 C-12.40588189 75.00657657 -11.63600564 73.68887933 -10.86669922 72.37084961 C-6.31960722 64.58135411 -1.70672609 56.84285746 3.04003906 49.17260742 C6.35626625 43.80459892 9.61807699 38.4041283 12.875 33 C13.53757813 31.90816406 14.20015625 30.81632812 14.8828125 29.69140625 C15.51703125 28.63824219 16.15125 27.58507812 16.8046875 26.5 C17.37171387 25.5615625 17.93874023 24.623125 18.52294922 23.65625 C19.91467188 21.15344958 21.00469391 18.68167888 22 16 C18.8796258 13.99271052 15.75296965 11.99542891 12.625 10 C11.73554688 9.42765625 10.84609375 8.8553125 9.9296875 8.265625 C9.07890625 7.72421875 8.228125 7.1828125 7.3515625 6.625 C6.56604004 6.12226563 5.78051758 5.61953125 4.97119141 5.1015625 C3.08537048 3.83739127 3.08537048 3.83739127 1 4 Z " fill="#5F4420" transform="translate(210,183)"/>
  <path d="M0 0 C-1.53014681 4.2106273 -3.62964766 7.95995597 -5.9296875 11.78515625 C-6.31663284 12.4351207 -6.70357819 13.08508514 -7.10224915 13.75474548 C-8.35639276 15.85940478 -9.61560946 17.96097697 -10.875 20.0625 C-11.73637987 21.50568282 -12.59746269 22.94904296 -13.45825195 24.39257812 C-15.96743412 28.59789252 -18.48321573 32.79923247 -21 37 C-21.6896786 38.15214345 -22.37929873 39.3043219 -23.06884766 40.45654297 C-26.37237817 45.97516757 -29.68208615 51.49001134 -33 57 C-29.86123928 59.60912969 -26.78217539 61.81853262 -23.1875 63.75 C-22.39730469 64.17796875 -21.60710937 64.6059375 -20.79296875 65.046875 C-19.90544922 65.51867187 -19.90544922 65.51867187 -19 66 C-22.53430656 68.35620437 -23.83571287 68.48991613 -28 68 C-31.3125 66.5 -31.3125 66.5 -34 64 C-34.80823301 61.231934 -34.90266164 58.92015074 -35 56 C-35.61875 55.896875 -36.2375 55.79375 -36.875 55.6875 C-39 55 -39 55 -41 52 C-41.55515501 45.78226388 -41.55515501 45.78226388 -39.625 43.0625 C-38 42 -38 42 -36 42 C-36.04640625 41.443125 -36.0928125 40.88625 -36.140625 40.3125 C-36.42539126 34.29172774 -35.39414547 30.01743244 -32 25 C-31.46890625 24.51917969 -30.9378125 24.03835937 -30.390625 23.54296875 C-28.58582815 21.54045539 -28.64061392 20.34796832 -28.5625 17.6875 C-28.1950486 12.99483937 -26.98319023 10.61598816 -24 7 C-21.38971691 5.69485845 -19.59329979 6.04201341 -16.6875 6.1875 C-12.10480668 6.24577411 -12.10480668 6.24577411 -8.0625 4.125 C-7.381875 3.42375 -6.70125 2.7225 -6 2 C-2.5 0 -2.5 0 0 0 Z " fill="#D8D7D7" transform="translate(198,202)"/>
  <path d="M0 0 C4.88036541 1.67491831 8.99152948 4.36791961 13.3125 7.125 C14.05306641 7.59292969 14.79363281 8.06085938 15.55664062 8.54296875 C17.37341968 9.69164196 19.18703037 10.84532369 21 12 C19.73450827 15.3512164 18.29812102 18.36898504 16.43359375 21.42578125 C15.94826172 22.22177734 15.46292969 23.01777344 14.96289062 23.83789062 C14.45951172 24.65451172 13.95613281 25.47113281 13.4375 26.3125 C12.93025391 27.14845703 12.42300781 27.98441406 11.90039062 28.84570312 C9.09345099 33.42426644 9.09345099 33.42426644 8 35 C7.67 35 7.34 35 7 35 C5.91957356 29.20498544 5.70541742 27.00776553 9 22 C9.53569328 18.32667469 9.28567818 16.54651478 7.5625 13.25 C4.0338214 10.15164806 0.56260099 9.65319288 -4 9 C-2.94124926 5.59687262 -1.99097846 2.98646769 0 0 Z " fill="#FAF9F8" transform="translate(211,187)"/>
  <path d="M0 0 C2.0625 0.4375 2.0625 0.4375 4 1 C2.60496449 4.75868018 0.87677491 8.07066295 -1.1953125 11.5 C-1.8255835 12.54679932 -2.45585449 13.59359863 -3.10522461 14.67211914 C-3.77175049 15.77031982 -4.43827637 16.86852051 -5.125 18 C-5.79990479 19.11818115 -6.47480957 20.2363623 -7.17016602 21.38842773 C-11.73984682 28.95031199 -16.33197597 36.49835116 -21 44 C-22.32 43.34 -23.64 42.68 -25 42 C-20.56544443 33.64083527 -15.79352126 25.51002401 -10.91186523 17.40771484 C-9.66950668 15.34512715 -8.43122012 13.28013332 -7.19335938 11.21484375 C-6.40388059 9.90090058 -5.61417576 8.58709321 -4.82421875 7.2734375 C-4.45447433 6.65689301 -4.08472992 6.04034851 -3.70378113 5.40512085 C-1.11559031 1.11559031 -1.11559031 1.11559031 0 0 Z " fill="#F5F3F1" transform="translate(226,217)"/>
  <path d="M0 0 C2.30978833 2.08626043 2.87860037 3.40817681 3.5 6.4375 C2.74631954 10.30011236 1.14926852 11.72180575 -2 14 C-5.8427383 14.06625411 -7.99200716 13.81899419 -11 11.375 C-12.46981805 7.88418213 -11.98413921 5.60851044 -11 2 C-7.80903437 -1.92734231 -4.60446868 -1.25576418 0 0 Z " fill="#644A29" transform="translate(190,245)"/>
  <path d="M0 0 C1.32 0 2.64 0 4 0 C2.62938601 3.66942861 0.96645212 6.93859497 -1.0390625 10.30078125 C-1.61914062 11.27724609 -2.19921875 12.25371094 -2.796875 13.25976562 C-3.40015625 14.26716797 -4.0034375 15.27457031 -4.625 16.3125 C-5.23601562 17.33923828 -5.84703125 18.36597656 -6.4765625 19.42382812 C-7.98119394 21.95113875 -9.4890994 24.47643399 -11 27 C-13.9719385 25.87548273 -16.33440687 24.77706209 -19 23 C-18.47424042 17.74240423 -18.47424042 17.74240423 -17 15 C-14.55951936 13.60731069 -12.14548062 12.79861481 -9.48046875 11.91796875 C-6.03915641 10.64441221 -4.20802948 8.89803869 -2 6 C-0.66436389 2.83298577 -0.66436389 2.83298577 0 0 Z " fill="#F8F7F6" transform="translate(201,244)"/>
  <path d="M0 0 C0.99 0.33 1.98 0.66 3 1 C2.35637019 4.42222677 1.0302073 6.84953515 -0.875 9.75 C-1.38804687 10.54921875 -1.90109375 11.3484375 -2.4296875 12.171875 C-3.20699219 13.07679688 -3.20699219 13.07679688 -4 14 C-4.99 14 -5.98 14 -7 14 C-6.34097701 10.42959697 -4.83770842 7.82267745 -2.9375 4.75 C-2.38964844 3.85796875 -1.84179688 2.9659375 -1.27734375 2.046875 C-0.64505859 1.03367188 -0.64505859 1.03367188 0 0 Z " fill="#614624" transform="translate(201,224)"/>
  <path d="M0 0 C0.66 0 1.32 0 2 0 C1.59422121 5.41038391 -0.42458314 9.92857155 -4 14 C-4.99 14 -5.98 14 -7 14 C-6.43450607 10.06946815 -5.28617442 7.46592463 -3.0625 4.1875 C-2.53785156 3.39730469 -2.01320312 2.60710937 -1.47265625 1.79296875 C-0.98667969 1.20128906 -0.50070313 0.60960937 0 0 Z " fill="#5F4420" transform="translate(213,205)"/>
  <path d="M0 0 C2.125 0.375 2.125 0.375 4 1 C4.625 2.875 4.625 2.875 5 5 C4.34 5.66 3.68 6.32 3 7 C0.875 6.625 0.875 6.625 -1 6 C-1.625 4.125 -1.625 4.125 -2 2 C-1.34 1.34 -0.68 0.68 0 0 Z " fill="#D4D3D2" transform="translate(184,248)"/>
</svg>